<mxfile host="app.diagrams.net" modified="2024-07-09T13:11:12.698Z" agent="Mozilla/5.0 (Windows NT 10.0; Win64; x64) AppleWebKit/537.36 (KHTML, like Gecko) Chrome/125.0.0.0 Safari/537.36 Edg/125.0.0.0" etag="M6KqAX38TkSL-710Yw_P" version="24.6.4" type="github">
  <diagram name="Page-1" id="_KQAKpd0hex_Py6dj3ck">
    <mxGraphModel dx="832" dy="491" grid="1" gridSize="10" guides="1" tooltips="1" connect="1" arrows="1" fold="1" page="1" pageScale="1" pageWidth="850" pageHeight="1100" background="#000033" math="0" shadow="0">
      <root>
        <mxCell id="0" />
        <mxCell id="1" parent="0" />
        <mxCell id="sQbAeRFy32RJSF6Tizpu-1" value="admin" style="swimlane;whiteSpace=wrap;html=1;strokeColor=#FFFFFF;" parent="1" vertex="1">
          <mxGeometry x="110" y="270" width="200" height="550" as="geometry" />
        </mxCell>
        <mxCell id="sQbAeRFy32RJSF6Tizpu-18" style="edgeStyle=orthogonalEdgeStyle;rounded=0;orthogonalLoop=1;jettySize=auto;html=1;exitX=0.5;exitY=1;exitDx=0;exitDy=0;entryX=0.5;entryY=0;entryDx=0;entryDy=0;strokeColor=#FFFFFF;" parent="sQbAeRFy32RJSF6Tizpu-1" source="sQbAeRFy32RJSF6Tizpu-5" target="sQbAeRFy32RJSF6Tizpu-7" edge="1">
          <mxGeometry relative="1" as="geometry" />
        </mxCell>
        <mxCell id="sQbAeRFy32RJSF6Tizpu-5" value="" style="ellipse;html=1;shape=startState;fillColor=#FFFFFF;strokeColor=#FFFFFF;" parent="sQbAeRFy32RJSF6Tizpu-1" vertex="1">
          <mxGeometry x="85" y="50" width="30" height="30" as="geometry" />
        </mxCell>
        <mxCell id="sQbAeRFy32RJSF6Tizpu-7" value="&lt;font color=&quot;#ffffff&quot;&gt;masuk kehalaman utama sebagai admin&lt;/font&gt;" style="html=1;whiteSpace=wrap;fillColor=none;strokeColor=#FFFFFF;rounded=1;" parent="sQbAeRFy32RJSF6Tizpu-1" vertex="1">
          <mxGeometry x="45" y="110" width="110" height="50" as="geometry" />
        </mxCell>
        <mxCell id="sQbAeRFy32RJSF6Tizpu-10" value="&lt;font color=&quot;#ffffff&quot;&gt;memilih opsi&lt;/font&gt;&lt;div&gt;&lt;font color=&quot;#ffffff&quot;&gt;&quot;data karyawan&quot;&lt;/font&gt;&lt;/div&gt;" style="html=1;whiteSpace=wrap;fillColor=none;strokeColor=#FFFFFF;rounded=1;" parent="sQbAeRFy32RJSF6Tizpu-1" vertex="1">
          <mxGeometry x="45" y="200" width="110" height="50" as="geometry" />
        </mxCell>
        <mxCell id="H1fWdGWNcTyqZF_AgVFX-2" value="&lt;font color=&quot;#ffffff&quot;&gt;merubah data karyawan&lt;/font&gt;" style="html=1;whiteSpace=wrap;fillColor=none;strokeColor=#FFFFFF;rounded=1;" vertex="1" parent="sQbAeRFy32RJSF6Tizpu-1">
          <mxGeometry x="45" y="290" width="110" height="50" as="geometry" />
        </mxCell>
        <mxCell id="sQbAeRFy32RJSF6Tizpu-2" value="sistem" style="swimlane;whiteSpace=wrap;html=1;strokeColor=#FFFFFF;" parent="1" vertex="1">
          <mxGeometry x="310" y="270" width="220" height="550" as="geometry" />
        </mxCell>
        <mxCell id="sQbAeRFy32RJSF6Tizpu-4" value="" style="ellipse;html=1;shape=endState;fillColor=#FFFFFF;strokeColor=#FFFFFF;" parent="sQbAeRFy32RJSF6Tizpu-2" vertex="1">
          <mxGeometry x="95" y="500" width="30" height="30" as="geometry" />
        </mxCell>
        <mxCell id="sQbAeRFy32RJSF6Tizpu-9" value="&lt;font color=&quot;#ffffff&quot;&gt;tampil halaman utama admin&lt;/font&gt;" style="html=1;whiteSpace=wrap;fillColor=none;strokeColor=#FFFFFF;rounded=1;" parent="sQbAeRFy32RJSF6Tizpu-2" vertex="1">
          <mxGeometry x="55" y="110" width="110" height="50" as="geometry" />
        </mxCell>
        <mxCell id="sQbAeRFy32RJSF6Tizpu-12" value="&lt;font color=&quot;#ffffff&quot;&gt;tampil halaman data karyawan&lt;/font&gt;" style="html=1;whiteSpace=wrap;fillColor=none;strokeColor=#FFFFFF;rounded=1;" parent="sQbAeRFy32RJSF6Tizpu-2" vertex="1">
          <mxGeometry x="55" y="200" width="110" height="50" as="geometry" />
        </mxCell>
        <mxCell id="sQbAeRFy32RJSF6Tizpu-24" style="edgeStyle=orthogonalEdgeStyle;rounded=0;orthogonalLoop=1;jettySize=auto;html=1;exitX=0.5;exitY=1;exitDx=0;exitDy=0;entryX=0.5;entryY=0;entryDx=0;entryDy=0;strokeColor=#FFFFFF;" parent="sQbAeRFy32RJSF6Tizpu-2" source="H1fWdGWNcTyqZF_AgVFX-1" target="sQbAeRFy32RJSF6Tizpu-17" edge="1">
          <mxGeometry relative="1" as="geometry">
            <mxPoint x="110" y="365" as="sourcePoint" />
          </mxGeometry>
        </mxCell>
        <mxCell id="sQbAeRFy32RJSF6Tizpu-27" style="edgeStyle=orthogonalEdgeStyle;rounded=0;orthogonalLoop=1;jettySize=auto;html=1;exitX=0.5;exitY=1;exitDx=0;exitDy=0;entryX=0.5;entryY=0;entryDx=0;entryDy=0;strokeColor=#FFFFFF;" parent="sQbAeRFy32RJSF6Tizpu-2" source="sQbAeRFy32RJSF6Tizpu-17" target="sQbAeRFy32RJSF6Tizpu-4" edge="1">
          <mxGeometry relative="1" as="geometry" />
        </mxCell>
        <mxCell id="sQbAeRFy32RJSF6Tizpu-17" value="&lt;font color=&quot;#ffffff&quot;&gt;tampil halaman utama admin&lt;/font&gt;" style="html=1;whiteSpace=wrap;fillColor=none;strokeColor=#FFFFFF;rounded=1;" parent="sQbAeRFy32RJSF6Tizpu-2" vertex="1">
          <mxGeometry x="55" y="430" width="110" height="50" as="geometry" />
        </mxCell>
        <mxCell id="sQbAeRFy32RJSF6Tizpu-28" value="&lt;font color=&quot;#ffffff&quot;&gt;ya&lt;/font&gt;" style="text;html=1;align=center;verticalAlign=middle;whiteSpace=wrap;rounded=0;" parent="sQbAeRFy32RJSF6Tizpu-2" vertex="1">
          <mxGeometry x="125" y="340" width="60" height="30" as="geometry" />
        </mxCell>
        <mxCell id="sQbAeRFy32RJSF6Tizpu-29" value="&lt;font color=&quot;#ffffff&quot;&gt;tidak&lt;/font&gt;" style="text;html=1;align=center;verticalAlign=middle;whiteSpace=wrap;rounded=0;" parent="sQbAeRFy32RJSF6Tizpu-2" vertex="1">
          <mxGeometry x="55" y="390" width="60" height="30" as="geometry" />
        </mxCell>
        <mxCell id="H1fWdGWNcTyqZF_AgVFX-1" value="" style="rhombus;whiteSpace=wrap;html=1;strokeColor=#FFFFFF;fillColor=#FF6666;" vertex="1" parent="sQbAeRFy32RJSF6Tizpu-2">
          <mxGeometry x="80" y="340" width="60" height="50" as="geometry" />
        </mxCell>
        <mxCell id="sQbAeRFy32RJSF6Tizpu-3" value="database" style="swimlane;whiteSpace=wrap;html=1;strokeColor=#FFFFFF;startSize=23;" parent="1" vertex="1">
          <mxGeometry x="530" y="270" width="200" height="550" as="geometry">
            <mxRectangle x="510" y="270" width="140" height="30" as="alternateBounds" />
          </mxGeometry>
        </mxCell>
        <mxCell id="sQbAeRFy32RJSF6Tizpu-15" value="&lt;font color=&quot;#ffffff&quot;&gt;data tersimpan&lt;/font&gt;" style="html=1;whiteSpace=wrap;fillColor=none;strokeColor=#FFFFFF;rounded=1;" parent="sQbAeRFy32RJSF6Tizpu-3" vertex="1">
          <mxGeometry x="45" y="340" width="110" height="50" as="geometry" />
        </mxCell>
        <mxCell id="sQbAeRFy32RJSF6Tizpu-19" style="edgeStyle=orthogonalEdgeStyle;rounded=0;orthogonalLoop=1;jettySize=auto;html=1;exitX=1;exitY=0.5;exitDx=0;exitDy=0;entryX=0;entryY=0.5;entryDx=0;entryDy=0;strokeColor=#FFFFFF;" parent="1" source="sQbAeRFy32RJSF6Tizpu-7" target="sQbAeRFy32RJSF6Tizpu-9" edge="1">
          <mxGeometry relative="1" as="geometry" />
        </mxCell>
        <mxCell id="sQbAeRFy32RJSF6Tizpu-20" style="edgeStyle=orthogonalEdgeStyle;rounded=0;orthogonalLoop=1;jettySize=auto;html=1;exitX=0.5;exitY=1;exitDx=0;exitDy=0;entryX=0.5;entryY=0;entryDx=0;entryDy=0;strokeColor=#FFFFFF;" parent="1" source="sQbAeRFy32RJSF6Tizpu-9" target="sQbAeRFy32RJSF6Tizpu-10" edge="1">
          <mxGeometry relative="1" as="geometry" />
        </mxCell>
        <mxCell id="sQbAeRFy32RJSF6Tizpu-21" style="edgeStyle=orthogonalEdgeStyle;rounded=0;orthogonalLoop=1;jettySize=auto;html=1;exitX=1;exitY=0.5;exitDx=0;exitDy=0;entryX=0;entryY=0.5;entryDx=0;entryDy=0;strokeColor=#FFFFFF;" parent="1" source="sQbAeRFy32RJSF6Tizpu-10" target="sQbAeRFy32RJSF6Tizpu-12" edge="1">
          <mxGeometry relative="1" as="geometry" />
        </mxCell>
        <mxCell id="sQbAeRFy32RJSF6Tizpu-23" style="edgeStyle=orthogonalEdgeStyle;rounded=0;orthogonalLoop=1;jettySize=auto;html=1;entryX=0;entryY=0.5;entryDx=0;entryDy=0;strokeColor=#FFFFFF;exitX=1;exitY=0.5;exitDx=0;exitDy=0;" parent="1" source="H1fWdGWNcTyqZF_AgVFX-1" target="sQbAeRFy32RJSF6Tizpu-15" edge="1">
          <mxGeometry relative="1" as="geometry">
            <mxPoint x="460" y="620" as="sourcePoint" />
          </mxGeometry>
        </mxCell>
        <mxCell id="sQbAeRFy32RJSF6Tizpu-25" style="edgeStyle=orthogonalEdgeStyle;rounded=0;orthogonalLoop=1;jettySize=auto;html=1;exitX=0.5;exitY=1;exitDx=0;exitDy=0;entryX=1;entryY=0.5;entryDx=0;entryDy=0;strokeColor=#FFFFFF;" parent="1" source="sQbAeRFy32RJSF6Tizpu-15" target="sQbAeRFy32RJSF6Tizpu-17" edge="1">
          <mxGeometry relative="1" as="geometry" />
        </mxCell>
        <mxCell id="sQbAeRFy32RJSF6Tizpu-22" style="edgeStyle=orthogonalEdgeStyle;rounded=0;orthogonalLoop=1;jettySize=auto;html=1;exitX=0.5;exitY=1;exitDx=0;exitDy=0;entryX=0.5;entryY=0;entryDx=0;entryDy=0;strokeColor=#FFFFFF;" parent="1" source="sQbAeRFy32RJSF6Tizpu-12" target="H1fWdGWNcTyqZF_AgVFX-2" edge="1">
          <mxGeometry relative="1" as="geometry">
            <mxPoint x="420" y="555" as="targetPoint" />
          </mxGeometry>
        </mxCell>
        <mxCell id="H1fWdGWNcTyqZF_AgVFX-3" style="edgeStyle=orthogonalEdgeStyle;rounded=0;orthogonalLoop=1;jettySize=auto;html=1;exitX=0.5;exitY=1;exitDx=0;exitDy=0;entryX=0;entryY=0.5;entryDx=0;entryDy=0;strokeColor=#FFFFFF;" edge="1" parent="1" source="H1fWdGWNcTyqZF_AgVFX-2" target="H1fWdGWNcTyqZF_AgVFX-1">
          <mxGeometry relative="1" as="geometry" />
        </mxCell>
      </root>
    </mxGraphModel>
  </diagram>
</mxfile>
